<svg width="174" height="55" viewBox="0 0 174 55" fill="none" xmlns="http://www.w3.org/2000/svg">
<path d="M58.95 33.17C57.9073 33.17 57.0177 32.9887 56.281 32.626C55.5557 32.2633 54.989 31.742 54.581 31.062C54.1843 30.3707 53.969 29.549 53.935 28.597C53.9237 28.1097 53.918 27.5883 53.918 27.033C53.918 26.4663 53.9237 25.9337 53.935 25.435C53.969 24.4943 54.1843 23.6897 54.581 23.021C54.989 22.3523 55.5613 21.8367 56.298 21.474C57.046 21.1113 57.93 20.93 58.95 20.93C59.7773 20.93 60.5027 21.0433 61.126 21.27C61.7493 21.4853 62.265 21.7687 62.673 22.12C63.0923 22.46 63.404 22.8283 63.608 23.225C63.8233 23.6217 63.9367 23.99 63.948 24.33C63.9593 24.432 63.931 24.517 63.863 24.585C63.795 24.653 63.7043 24.687 63.591 24.687H61.84C61.7267 24.687 61.6417 24.6643 61.585 24.619C61.5283 24.5737 61.4773 24.5057 61.432 24.415C61.3413 24.177 61.1997 23.9447 61.007 23.718C60.8143 23.48 60.5537 23.2817 60.225 23.123C59.8963 22.9643 59.4713 22.885 58.95 22.885C58.1793 22.885 57.5617 23.089 57.097 23.497C56.6437 23.905 56.4 24.5793 56.366 25.52C56.332 26.506 56.332 27.5033 56.366 28.512C56.4 29.4753 56.6493 30.1667 57.114 30.586C57.59 31.0053 58.2133 31.215 58.984 31.215C59.494 31.215 59.9473 31.1243 60.344 30.943C60.752 30.7617 61.0693 30.4783 61.296 30.093C61.534 29.7077 61.653 29.2147 61.653 28.614V28.087H59.579C59.4657 28.087 59.3693 28.0473 59.29 27.968C59.2107 27.8887 59.171 27.7867 59.171 27.662V26.761C59.171 26.6363 59.2107 26.5343 59.29 26.455C59.3693 26.3757 59.4657 26.336 59.579 26.336H63.642C63.7667 26.336 63.863 26.3757 63.931 26.455C64.0103 26.5343 64.05 26.6363 64.05 26.761V28.546C64.05 29.498 63.8403 30.3197 63.421 31.011C63.013 31.7023 62.4237 32.235 61.653 32.609C60.8937 32.983 59.9927 33.17 58.95 33.17ZM69.9353 33.17C69.0287 33.17 68.2637 33.0113 67.6403 32.694C67.0283 32.3767 66.558 31.929 66.2293 31.351C65.912 30.773 65.7307 30.0987 65.6853 29.328C65.674 29.124 65.6683 28.8747 65.6683 28.58C65.6683 28.2853 65.674 28.036 65.6853 27.832C65.7307 27.05 65.9177 26.3757 66.2463 25.809C66.5863 25.231 67.0623 24.7833 67.6743 24.466C68.2977 24.1487 69.0513 23.99 69.9353 23.99C70.8193 23.99 71.5673 24.1487 72.1793 24.466C72.8027 24.7833 73.2787 25.231 73.6073 25.809C73.9473 26.3757 74.14 27.05 74.1853 27.832C74.1967 28.036 74.2023 28.2853 74.2023 28.58C74.2023 28.8747 74.1967 29.124 74.1853 29.328C74.14 30.0987 73.953 30.773 73.6243 31.351C73.307 31.929 72.8367 32.3767 72.2133 32.694C71.6013 33.0113 70.842 33.17 69.9353 33.17ZM69.9353 31.487C70.536 31.487 71.0007 31.3 71.3293 30.926C71.658 30.5407 71.8393 29.9797 71.8733 29.243C71.8847 29.073 71.8903 28.852 71.8903 28.58C71.8903 28.308 71.8847 28.087 71.8733 27.917C71.8393 27.1917 71.658 26.6363 71.3293 26.251C71.0007 25.8657 70.536 25.673 69.9353 25.673C69.3347 25.673 68.87 25.8657 68.5413 26.251C68.2127 26.6363 68.0313 27.1917 67.9973 27.917C67.986 28.087 67.9803 28.308 67.9803 28.58C67.9803 28.852 67.986 29.073 67.9973 29.243C68.0313 29.9797 68.2127 30.5407 68.5413 30.926C68.87 31.3 69.3347 31.487 69.9353 31.487ZM79.9959 33.17C79.0892 33.17 78.3242 33.0113 77.7009 32.694C77.0889 32.3767 76.6185 31.929 76.2899 31.351C75.9725 30.773 75.7912 30.0987 75.7459 29.328C75.7345 29.124 75.7289 28.8747 75.7289 28.58C75.7289 28.2853 75.7345 28.036 75.7459 27.832C75.7912 27.05 75.9782 26.3757 76.3069 25.809C76.6469 25.231 77.1229 24.7833 77.7349 24.466C78.3582 24.1487 79.1119 23.99 79.9959 23.99C80.8799 23.99 81.6279 24.1487 82.2399 24.466C82.8632 24.7833 83.3392 25.231 83.6679 25.809C84.0079 26.3757 84.2005 27.05 84.2459 27.832C84.2572 28.036 84.2629 28.2853 84.2629 28.58C84.2629 28.8747 84.2572 29.124 84.2459 29.328C84.2005 30.0987 84.0135 30.773 83.6849 31.351C83.3675 31.929 82.8972 32.3767 82.2739 32.694C81.6619 33.0113 80.9025 33.17 79.9959 33.17ZM79.9959 31.487C80.5965 31.487 81.0612 31.3 81.3899 30.926C81.7185 30.5407 81.8999 29.9797 81.9339 29.243C81.9452 29.073 81.9509 28.852 81.9509 28.58C81.9509 28.308 81.9452 28.087 81.9339 27.917C81.8999 27.1917 81.7185 26.6363 81.3899 26.251C81.0612 25.8657 80.5965 25.673 79.9959 25.673C79.3952 25.673 78.9305 25.8657 78.6019 26.251C78.2732 26.6363 78.0919 27.1917 78.0579 27.917C78.0465 28.087 78.0409 28.308 78.0409 28.58C78.0409 28.852 78.0465 29.073 78.0579 29.243C78.0919 29.9797 78.2732 30.5407 78.6019 30.926C78.9305 31.3 79.3952 31.487 79.9959 31.487ZM90.1414 36.74C89.3141 36.74 88.6341 36.6323 88.1014 36.417C87.5687 36.2017 87.1494 35.941 86.8434 35.635C86.5374 35.329 86.3164 35.023 86.1804 34.717C86.0557 34.4223 85.9877 34.19 85.9764 34.02C85.9651 33.9067 85.9991 33.8047 86.0784 33.714C86.1691 33.6347 86.2711 33.595 86.3844 33.595H87.8634C87.9767 33.595 88.0674 33.6177 88.1354 33.663C88.2034 33.7197 88.2601 33.816 88.3054 33.952C88.3734 34.0993 88.4641 34.258 88.5774 34.428C88.6907 34.598 88.8607 34.7397 89.0874 34.853C89.3254 34.9777 89.6484 35.04 90.0564 35.04C90.4871 35.04 90.8497 34.9777 91.1444 34.853C91.4391 34.7283 91.6601 34.5187 91.8074 34.224C91.9661 33.9293 92.0454 33.5213 92.0454 33V31.844C91.7734 32.1727 91.4221 32.439 90.9914 32.643C90.5721 32.847 90.0507 32.949 89.4274 32.949C88.8154 32.949 88.2884 32.8527 87.8464 32.66C87.4044 32.456 87.0361 32.1783 86.7414 31.827C86.4467 31.4643 86.2201 31.0393 86.0614 30.552C85.9141 30.0647 85.8291 29.5263 85.8064 28.937C85.7951 28.631 85.7951 28.325 85.8064 28.019C85.8291 27.4523 85.9141 26.9253 86.0614 26.438C86.2087 25.9507 86.4297 25.5257 86.7244 25.163C87.0304 24.789 87.4044 24.5 87.8464 24.296C88.2884 24.092 88.8154 23.99 89.4274 23.99C90.0734 23.99 90.6174 24.1147 91.0594 24.364C91.5014 24.602 91.8641 24.9023 92.1474 25.265V24.585C92.1474 24.4603 92.1871 24.3583 92.2664 24.279C92.3457 24.1997 92.4421 24.16 92.5554 24.16H93.9324C94.0457 24.16 94.1421 24.1997 94.2214 24.279C94.3007 24.3583 94.3404 24.4603 94.3404 24.585L94.3574 32.779C94.3574 33.595 94.2044 34.2977 93.8984 34.887C93.5924 35.4763 93.1277 35.9297 92.5044 36.247C91.8924 36.5757 91.1047 36.74 90.1414 36.74ZM90.0564 31.147C90.5211 31.147 90.8951 31.045 91.1784 30.841C91.4617 30.637 91.6714 30.3707 91.8074 30.042C91.9434 29.7133 92.0227 29.379 92.0454 29.039C92.0567 28.8917 92.0624 28.7047 92.0624 28.478C92.0624 28.2513 92.0567 28.07 92.0454 27.934C92.0227 27.5827 91.9434 27.2483 91.8074 26.931C91.6714 26.6023 91.4617 26.336 91.1784 26.132C90.8951 25.9167 90.5211 25.809 90.0564 25.809C89.5917 25.809 89.2177 25.9167 88.9344 26.132C88.6511 26.336 88.4471 26.608 88.3224 26.948C88.2091 27.288 88.1411 27.662 88.1184 28.07C88.0957 28.342 88.0957 28.6197 88.1184 28.903C88.1411 29.2997 88.2091 29.6737 88.3224 30.025C88.4471 30.365 88.6511 30.637 88.9344 30.841C89.2177 31.045 89.5917 31.147 90.0564 31.147ZM97.047 33C96.9337 33 96.8373 32.9603 96.758 32.881C96.6787 32.8017 96.639 32.7053 96.639 32.592V21.338C96.639 21.2247 96.6787 21.1283 96.758 21.049C96.8373 20.9697 96.9337 20.93 97.047 20.93H98.458C98.5713 20.93 98.6677 20.9697 98.747 21.049C98.8263 21.1283 98.866 21.2247 98.866 21.338V32.592C98.866 32.7053 98.8263 32.8017 98.747 32.881C98.6677 32.9603 98.5713 33 98.458 33H97.047ZM104.929 33.17C103.671 33.17 102.674 32.8073 101.937 32.082C101.2 31.3567 100.804 30.3253 100.747 28.988C100.736 28.8747 100.73 28.733 100.73 28.563C100.73 28.3817 100.736 28.24 100.747 28.138C100.792 27.288 100.985 26.5513 101.325 25.928C101.676 25.3047 102.158 24.8287 102.77 24.5C103.382 24.16 104.102 23.99 104.929 23.99C105.847 23.99 106.618 24.1827 107.241 24.568C107.864 24.942 108.335 25.469 108.652 26.149C108.969 26.8177 109.128 27.594 109.128 28.478V28.835C109.128 28.9483 109.088 29.0447 109.009 29.124C108.93 29.2033 108.828 29.243 108.703 29.243H103.059C103.059 29.243 103.059 29.26 103.059 29.294C103.059 29.328 103.059 29.3563 103.059 29.379C103.07 29.7757 103.144 30.144 103.28 30.484C103.427 30.8127 103.637 31.079 103.909 31.283C104.192 31.487 104.527 31.589 104.912 31.589C105.229 31.589 105.496 31.5437 105.711 31.453C105.926 31.351 106.102 31.2377 106.238 31.113C106.374 30.9883 106.47 30.8863 106.527 30.807C106.629 30.671 106.708 30.5917 106.765 30.569C106.833 30.535 106.929 30.518 107.054 30.518H108.516C108.629 30.518 108.72 30.552 108.788 30.62C108.867 30.688 108.901 30.773 108.89 30.875C108.879 31.0563 108.782 31.2773 108.601 31.538C108.431 31.7987 108.182 32.0537 107.853 32.303C107.524 32.5523 107.111 32.762 106.612 32.932C106.125 33.0907 105.564 33.17 104.929 33.17ZM103.059 27.815H106.816V27.764C106.816 27.322 106.742 26.9367 106.595 26.608C106.448 26.2793 106.232 26.0187 105.949 25.826C105.666 25.6333 105.326 25.537 104.929 25.537C104.532 25.537 104.192 25.6333 103.909 25.826C103.626 26.0187 103.41 26.2793 103.263 26.608C103.127 26.9367 103.059 27.322 103.059 27.764V27.815ZM115.429 33C115.316 33 115.22 32.9603 115.14 32.881C115.061 32.8017 115.021 32.7053 115.021 32.592V21.525C115.021 21.4003 115.061 21.2983 115.14 21.219C115.22 21.1397 115.316 21.1 115.429 21.1H119.985C120.869 21.1 121.64 21.2417 122.297 21.525C122.955 21.797 123.465 22.2163 123.827 22.783C124.19 23.3383 124.371 24.0353 124.371 24.874C124.371 25.724 124.19 26.4267 123.827 26.982C123.465 27.526 122.955 27.934 122.297 28.206C121.64 28.478 120.869 28.614 119.985 28.614H117.452V32.592C117.452 32.7053 117.413 32.8017 117.333 32.881C117.265 32.9603 117.169 33 117.044 33H115.429ZM117.418 26.727H119.9C120.558 26.727 121.062 26.574 121.413 26.268C121.765 25.9507 121.94 25.486 121.94 24.874C121.94 24.3073 121.776 23.854 121.447 23.514C121.119 23.1627 120.603 22.987 119.9 22.987H117.418V26.727ZM126.448 33C126.335 33 126.239 32.9603 126.159 32.881C126.08 32.8017 126.04 32.7053 126.04 32.592V21.338C126.04 21.2247 126.08 21.1283 126.159 21.049C126.239 20.9697 126.335 20.93 126.448 20.93H127.859C127.973 20.93 128.069 20.9697 128.148 21.049C128.228 21.1283 128.267 21.2247 128.267 21.338V32.592C128.267 32.7053 128.228 32.8017 128.148 32.881C128.069 32.9603 127.973 33 127.859 33H126.448ZM133.089 33.17C132.5 33.17 131.967 33.0567 131.491 32.83C131.015 32.592 130.636 32.2803 130.352 31.895C130.08 31.4983 129.944 31.0563 129.944 30.569C129.944 29.7757 130.262 29.1467 130.896 28.682C131.542 28.206 132.392 27.8887 133.446 27.73L135.775 27.39V27.033C135.775 26.557 135.656 26.1887 135.418 25.928C135.18 25.6673 134.772 25.537 134.194 25.537C133.786 25.537 133.452 25.622 133.191 25.792C132.942 25.9507 132.755 26.166 132.63 26.438C132.54 26.5853 132.409 26.659 132.239 26.659H130.896C130.772 26.659 130.675 26.625 130.607 26.557C130.551 26.489 130.522 26.3983 130.522 26.285C130.534 26.1037 130.607 25.8827 130.743 25.622C130.879 25.3613 131.095 25.112 131.389 24.874C131.684 24.6247 132.064 24.415 132.528 24.245C132.993 24.075 133.554 23.99 134.211 23.99C134.925 23.99 135.526 24.0807 136.013 24.262C136.512 24.432 136.909 24.6643 137.203 24.959C137.498 25.2537 137.713 25.5993 137.849 25.996C137.985 26.3927 138.053 26.812 138.053 27.254V32.592C138.053 32.7053 138.014 32.8017 137.934 32.881C137.855 32.9603 137.759 33 137.645 33H136.268C136.144 33 136.042 32.9603 135.962 32.881C135.894 32.8017 135.86 32.7053 135.86 32.592V31.929C135.713 32.1443 135.515 32.3483 135.265 32.541C135.016 32.7223 134.71 32.8753 134.347 33C133.996 33.1133 133.577 33.17 133.089 33.17ZM133.667 31.555C134.064 31.555 134.421 31.47 134.738 31.3C135.067 31.13 135.322 30.8693 135.503 30.518C135.696 30.1553 135.792 29.702 135.792 29.158V28.801L134.092 29.073C133.424 29.175 132.925 29.3393 132.596 29.566C132.268 29.7927 132.103 30.0703 132.103 30.399C132.103 30.6483 132.177 30.8637 132.324 31.045C132.483 31.215 132.681 31.3453 132.919 31.436C133.157 31.5153 133.407 31.555 133.667 31.555ZM141.6 36.23C141.509 36.23 141.43 36.196 141.362 36.128C141.294 36.06 141.26 35.9807 141.26 35.89C141.26 35.8447 141.26 35.7993 141.26 35.754C141.271 35.72 141.294 35.6747 141.328 35.618L142.654 32.473L139.39 24.772C139.345 24.6587 139.322 24.5793 139.322 24.534C139.333 24.432 139.373 24.347 139.441 24.279C139.509 24.1997 139.594 24.16 139.696 24.16H141.073C141.209 24.16 141.311 24.194 141.379 24.262C141.447 24.33 141.498 24.4037 141.532 24.483L143.793 30.042L146.122 24.483C146.156 24.3923 146.207 24.3187 146.275 24.262C146.343 24.194 146.445 24.16 146.581 24.16H147.941C148.032 24.16 148.111 24.194 148.179 24.262C148.258 24.33 148.298 24.4093 148.298 24.5C148.298 24.568 148.275 24.6587 148.23 24.772L143.419 35.907C143.374 35.9977 143.317 36.0713 143.249 36.128C143.181 36.196 143.079 36.23 142.943 36.23H141.6Z" fill="#262262"/>
<rect x="0.5" y="0.5" width="173" height="54" rx="9.5" stroke="#262262"/>
<path d="M37.954 27.068L40.911 23.7414L31.36 17.7024C30.727 17.3177 30.134 17.2637 29.614 17.6844L37.954 27.068ZM41.415 30.9628L44.489 29.0177C45.089 28.6397 45.418 28.1042 45.418 27.5102C45.418 26.9173 45.089 26.3807 44.49 26.0027L41.707 24.2443L38.574 27.7678L41.415 30.9628ZM29.1 18.5023C29.036 18.7239 29 18.9714 29 19.2425V35.7857C29 36.2143 29.084 36.5833 29.236 36.8769L37.333 27.7667L29.1 18.5023ZM37.954 28.4642L29.902 37.5238C30.056 37.5902 30.222 37.625 30.397 37.625C30.709 37.625 31.034 37.5215 31.365 37.3145L40.62 31.4679L37.954 28.4642Z" fill="#262262"/>
</svg>
