<svg width="1497" height="65" viewBox="0 0 1497 65" fill="none" xmlns="http://www.w3.org/2000/svg">
<g clip-path="url(#clip0_12_317)">
<path d="M750 64.9999C618.056 68.0092 90.2778 72.824 -41.6667 64.9999C-173.611 57.1759 -48.6111 21.0648 -41.6667 18.0555C-34.7222 15.0462 -13.8889 46.9444 0 46.9444C13.8889 46.9444 27.7778 18.0555 41.6667 18.0555C55.5556 18.0555 69.4444 46.9444 83.3333 46.9444C97.2222 46.9444 111.111 18.0555 125 18.0555C138.889 18.0555 152.778 46.9444 166.667 46.9444C180.556 46.9444 194.444 18.0555 208.333 18.0555C222.222 18.0555 236.111 46.9444 250 46.9444C263.889 46.9444 277.778 18.0555 291.667 18.0555C305.556 18.0555 319.444 46.9444 333.333 46.9444C347.222 46.9444 361.111 18.0555 375 18.0555C388.889 18.0555 402.778 46.9444 416.667 46.9444C430.556 46.9444 444.444 18.0555 458.333 18.0555C472.222 18.0555 486.111 46.9444 500 46.9444C513.889 46.9444 527.778 18.0555 541.667 18.0555C555.556 18.0555 569.444 46.9444 583.333 46.9444C597.222 46.9444 611.111 18.0555 625 18.0555C638.889 18.0555 652.778 46.9444 666.667 46.9444C680.556 46.9444 694.444 18.0555 708.333 18.0555C722.222 18.0555 743.056 39.1203 750 46.9444C756.944 54.7685 881.944 61.9907 750 64.9999C618.056 68.0092 90.2778 72.824 -41.6667 64.9999H750Z" fill="white"/>
</g>
<g clip-path="url(#clip1_12_317)">
<path d="M1497 64.9999C1365.06 68.0092 837.278 72.824 705.333 64.9999C573.389 57.1759 698.389 21.0648 705.333 18.0555C712.278 15.0462 733.111 46.9444 747 46.9444C760.889 46.9444 774.778 18.0555 788.666 18.0555C802.555 18.0555 816.444 46.9444 830.333 46.9444C844.222 46.9444 858.111 18.0555 872 18.0555C885.889 18.0555 899.778 46.9444 913.666 46.9444C927.555 46.9444 941.444 18.0555 955.333 18.0555C969.222 18.0555 983.111 46.9444 997 46.9444C1010.89 46.9444 1024.78 18.0555 1038.67 18.0555C1052.56 18.0555 1066.44 46.9444 1080.33 46.9444C1094.22 46.9444 1108.11 18.0555 1122 18.0555C1135.89 18.0555 1149.78 46.9444 1163.67 46.9444C1177.56 46.9444 1191.44 18.0555 1205.33 18.0555C1219.22 18.0555 1233.11 46.9444 1247 46.9444C1260.89 46.9444 1274.78 18.0555 1288.67 18.0555C1302.56 18.0555 1316.44 46.9444 1330.33 46.9444C1344.22 46.9444 1358.11 18.0555 1372 18.0555C1385.89 18.0555 1399.78 46.9444 1413.67 46.9444C1427.56 46.9444 1441.44 18.0555 1455.33 18.0555C1469.22 18.0555 1490.06 39.1203 1497 46.9444C1503.94 54.7685 1628.94 61.9907 1497 64.9999C1365.06 68.0092 837.278 72.824 705.333 64.9999H1497Z" fill="white"/>
</g>
<defs>
<clipPath id="clip0_12_317">
<rect width="750" height="65" fill="white"/>
</clipPath>
<clipPath id="clip1_12_317">
<rect width="750" height="65" fill="white" transform="translate(747)"/>
</clipPath>
</defs>
</svg>
