<svg width="741" height="445" viewBox="0 0 741 445" fill="none" xmlns="http://www.w3.org/2000/svg">
<g clip-path="url(#clip0_12_283)">
<path d="M51 199C54.866 199 58 195.866 58 192C58 188.134 54.866 185 51 185C47.134 185 44 188.134 44 192C44 195.866 47.134 199 51 199Z" fill="#6ECD92"/>
<path d="M203 445C206.866 445 210 441.866 210 438C210 434.134 206.866 431 203 431C199.134 431 196 434.134 196 438C196 441.866 199.134 445 203 445Z" fill="#FA7B7A"/>
<path d="M669 315C672.866 315 676 311.866 676 308C676 304.134 672.866 301 669 301C665.134 301 662 304.134 662 308C662 311.866 665.134 315 669 315Z" fill="#CB9CFF"/>
<path d="M165.5 70C175.165 70 183 62.165 183 52.5C183 42.835 175.165 35 165.5 35C155.835 35 148 42.835 148 52.5C148 62.165 155.835 70 165.5 70Z" fill="#FFDFC0"/>
<path d="M518.5 367C528.165 367 536 359.165 536 349.5C536 339.835 528.165 332 518.5 332C508.835 332 501 339.835 501 349.5C501 359.165 508.835 367 518.5 367Z" fill="#9ACCF4"/>
<path d="M723.5 35C733.165 35 741 27.165 741 17.5C741 7.83502 733.165 0 723.5 0C713.835 0 706 7.83502 706 17.5C706 27.165 713.835 35 723.5 35Z" fill="#F3DBFF"/>
</g>
<defs>
<clipPath id="clip0_12_283">
<rect width="771" height="445" fill="white" transform="translate(-30)"/>
</clipPath>
</defs>
</svg>
