<svg width="1497" height="65" viewBox="0 0 1497 65" fill="none" xmlns="http://www.w3.org/2000/svg">
<g clip-path="url(#clip0_48_16)">
<path d="M750 65C618.056 68.0093 90.2778 72.8241 -41.6667 65C-173.611 57.1759 -48.6111 21.0648 -41.6667 18.0556C-34.7222 15.0463 -13.8889 46.9445 0 46.9445C13.8889 46.9445 27.7778 18.0556 41.6667 18.0556C55.5556 18.0556 69.4444 46.9445 83.3333 46.9445C97.2222 46.9445 111.111 18.0556 125 18.0556C138.889 18.0556 152.778 46.9445 166.667 46.9445C180.556 46.9445 194.444 18.0556 208.333 18.0556C222.222 18.0556 236.111 46.9445 250 46.9445C263.889 46.9445 277.778 18.0556 291.667 18.0556C305.556 18.0556 319.444 46.9445 333.333 46.9445C347.222 46.9445 361.111 18.0556 375 18.0556C388.889 18.0556 402.778 46.9445 416.667 46.9445C430.556 46.9445 444.444 18.0556 458.333 18.0556C472.222 18.0556 486.111 46.9445 500 46.9445C513.889 46.9445 527.778 18.0556 541.667 18.0556C555.556 18.0556 569.444 46.9445 583.333 46.9445C597.222 46.9445 611.111 18.0556 625 18.0556C638.889 18.0556 652.778 46.9445 666.667 46.9445C680.556 46.9445 694.444 18.0556 708.333 18.0556C722.222 18.0556 743.056 39.1204 750 46.9445C756.944 54.7685 881.944 61.9907 750 65C618.056 68.0093 90.2778 72.8241 -41.6667 65H750Z" fill="#010101"/>
</g>
<g clip-path="url(#clip1_48_16)">
<path d="M1497 65C1365.06 68.0093 837.278 72.8241 705.333 65C573.389 57.1759 698.389 21.0648 705.333 18.0556C712.278 15.0463 733.111 46.9445 747 46.9445C760.889 46.9445 774.778 18.0556 788.666 18.0556C802.555 18.0556 816.444 46.9445 830.333 46.9445C844.222 46.9445 858.111 18.0556 872 18.0556C885.889 18.0556 899.778 46.9445 913.666 46.9445C927.555 46.9445 941.444 18.0556 955.333 18.0556C969.222 18.0556 983.111 46.9445 997 46.9445C1010.89 46.9445 1024.78 18.0556 1038.67 18.0556C1052.56 18.0556 1066.44 46.9445 1080.33 46.9445C1094.22 46.9445 1108.11 18.0556 1122 18.0556C1135.89 18.0556 1149.78 46.9445 1163.67 46.9445C1177.56 46.9445 1191.44 18.0556 1205.33 18.0556C1219.22 18.0556 1233.11 46.9445 1247 46.9445C1260.89 46.9445 1274.78 18.0556 1288.67 18.0556C1302.56 18.0556 1316.44 46.9445 1330.33 46.9445C1344.22 46.9445 1358.11 18.0556 1372 18.0556C1385.89 18.0556 1399.78 46.9445 1413.67 46.9445C1427.56 46.9445 1441.44 18.0556 1455.33 18.0556C1469.22 18.0556 1490.06 39.1204 1497 46.9445C1503.94 54.7685 1628.94 61.9907 1497 65C1365.06 68.0093 837.278 72.8241 705.333 65H1497Z" fill="#010101"/>
</g>
<defs>
<clipPath id="clip0_48_16">
<rect width="750" height="65" fill="white"/>
</clipPath>
<clipPath id="clip1_48_16">
<rect width="750" height="65" fill="white" transform="translate(747)"/>
</clipPath>
</defs>
</svg>
