<svg width="22" height="20" viewBox="0 0 22 20" fill="none" xmlns="http://www.w3.org/2000/svg">
<g clip-path="url(#clip0_12_273)">
<path d="M15.556 1.66666H6.66302C4.20731 1.66666 2.21655 3.53214 2.21655 5.83332V14.1667C2.21655 16.4678 4.20731 18.3333 6.66302 18.3333H15.556C18.0117 18.3333 20.0024 16.4678 20.0024 14.1667V5.83332C20.0024 3.53214 18.0117 1.66666 15.556 1.66666Z" stroke="white" stroke-width="2" stroke-linecap="round" stroke-linejoin="round"/>
<path d="M14.6667 9.47501C14.7765 10.1685 14.65 10.8769 14.3054 11.4992C13.9608 12.1215 13.4156 12.6262 12.7473 12.9414C12.079 13.2566 11.3216 13.3663 10.5829 13.2549C9.84417 13.1436 9.16176 12.8167 8.6327 12.321C8.10364 11.8252 7.75487 11.1857 7.636 10.4935C7.51713 9.8013 7.63422 9.09158 7.97061 8.46532C8.30699 7.83905 8.84555 7.32812 9.50967 7.00521C10.1738 6.68229 10.9297 6.56383 11.6698 6.66667C12.4247 6.77158 13.1236 7.10123 13.6633 7.60693C14.203 8.11263 14.5548 8.76757 14.6667 9.47501Z" stroke="white" stroke-width="2" stroke-linecap="round" stroke-linejoin="round"/>
<path d="M16.0007 5.41669H16.0104" stroke="white" stroke-width="2" stroke-linecap="round" stroke-linejoin="round"/>
</g>
<defs>
<clipPath id="clip0_12_273">
<rect width="21.3431" height="20" fill="white" transform="translate(0.437988)"/>
</clipPath>
</defs>
</svg>
