<svg width="1024" height="1024" viewBox="0 0 1024 1024" fill="none" xmlns="http://www.w3.org/2000/svg">
<path d="M904 160H120C115.6 160 112 163.6 112 168V232C112 236.4 115.6 240 120 240H904C908.4 240 912 236.4 912 232V168C912 163.6 908.4 160 904 160ZM904 784H120C115.6 784 112 787.6 112 792V856C112 860.4 115.6 864 120 864H904C908.4 864 912 860.4 912 856V792C912 787.6 908.4 784 904 784ZM904 472H120C115.6 472 112 475.6 112 480V544C112 548.4 115.6 552 120 552H904C908.4 552 912 548.4 912 544V480C912 475.6 908.4 472 904 472Z" fill="#262262"/>
</svg>
