<svg width="1497" height="65" viewBox="0 0 1497 65" fill="none" xmlns="http://www.w3.org/2000/svg">
<g clip-path="url(#clip0_12_309)">
<path d="M750 -0.000190735C618.056 -3.00945 90.2778 -7.82427 -41.6667 -0.000190735C-173.611 7.82388 -48.6111 43.935 -41.6667 46.9443C-34.7222 49.9535 -13.8889 18.0554 0 18.0554C13.8889 18.0554 27.7778 46.9443 41.6667 46.9443C55.5556 46.9443 69.4444 18.0554 83.3333 18.0554C97.2222 18.0554 111.111 46.9443 125 46.9443C138.889 46.9443 152.778 18.0554 166.667 18.0554C180.556 18.0554 194.444 46.9443 208.333 46.9443C222.222 46.9443 236.111 18.0554 250 18.0554C263.889 18.0554 277.778 46.9443 291.667 46.9443C305.556 46.9443 319.444 18.0554 333.333 18.0554C347.222 18.0554 361.111 46.9443 375 46.9443C388.889 46.9443 402.778 18.0554 416.667 18.0554C430.556 18.0554 444.444 46.9443 458.333 46.9443C472.222 46.9443 486.111 18.0554 500 18.0554C513.889 18.0554 527.778 46.9443 541.667 46.9443C555.556 46.9443 569.444 18.0554 583.333 18.0554C597.222 18.0554 611.111 46.9443 625 46.9443C638.889 46.9443 652.778 18.0554 666.667 18.0554C680.556 18.0554 694.444 46.9443 708.333 46.9443C722.222 46.9443 743.056 25.8794 750 18.0554C756.944 10.2313 881.944 3.00907 750 -0.000190735C618.056 -3.00945 90.2778 -7.82427 -41.6667 -0.000190735H750Z" fill="white"/>
</g>
<g clip-path="url(#clip1_12_309)">
<path d="M1497 -0.000190735C1365.06 -3.00945 837.278 -7.82427 705.333 -0.000190735C573.389 7.82388 698.389 43.935 705.333 46.9443C712.278 49.9535 733.111 18.0554 747 18.0554C760.889 18.0554 774.778 46.9443 788.666 46.9443C802.555 46.9443 816.444 18.0554 830.333 18.0554C844.222 18.0554 858.111 46.9443 872 46.9443C885.889 46.9443 899.778 18.0554 913.666 18.0554C927.555 18.0554 941.444 46.9443 955.333 46.9443C969.222 46.9443 983.111 18.0554 997 18.0554C1010.89 18.0554 1024.78 46.9443 1038.67 46.9443C1052.56 46.9443 1066.44 18.0554 1080.33 18.0554C1094.22 18.0554 1108.11 46.9443 1122 46.9443C1135.89 46.9443 1149.78 18.0554 1163.67 18.0554C1177.56 18.0554 1191.44 46.9443 1205.33 46.9443C1219.22 46.9443 1233.11 18.0554 1247 18.0554C1260.89 18.0554 1274.78 46.9443 1288.67 46.9443C1302.56 46.9443 1316.44 18.0554 1330.33 18.0554C1344.22 18.0554 1358.11 46.9443 1372 46.9443C1385.89 46.9443 1399.78 18.0554 1413.67 18.0554C1427.56 18.0554 1441.44 46.9443 1455.33 46.9443C1469.22 46.9443 1490.06 25.8794 1497 18.0554C1503.94 10.2313 1628.94 3.00907 1497 -0.000190735C1365.06 -3.00945 837.278 -7.82427 705.333 -0.000190735H1497Z" fill="white"/>
</g>
<defs>
<clipPath id="clip0_12_309">
<rect width="750" height="65" fill="white" transform="matrix(1 0 0 -1 0 65)"/>
</clipPath>
<clipPath id="clip1_12_309">
<rect width="750" height="65" fill="white" transform="matrix(1 0 0 -1 747 65)"/>
</clipPath>
</defs>
</svg>
