<svg width="22" height="20" viewBox="0 0 22 20" fill="none" xmlns="http://www.w3.org/2000/svg">
<path d="M21.1111 2.49999C20.2595 3.06289 19.3166 3.49341 18.3187 3.77499C17.7831 3.19791 17.0713 2.7889 16.2796 2.60326C15.4879 2.41762 14.6544 2.46432 13.8919 2.73703C13.1294 3.00975 12.4747 3.49532 12.0163 4.12808C11.5579 4.76085 11.3179 5.51027 11.3289 6.27499V7.10832C9.76605 7.14629 8.21747 6.8215 6.82104 6.16286C5.42462 5.50422 4.22369 4.53218 3.32522 3.33332C3.32522 3.33332 -0.231958 10.8333 7.77169 14.1667C5.94021 15.3316 3.75845 15.9158 1.54663 15.8333C9.55028 20 19.3325 15.8333 19.3325 6.24999C19.3317 6.01787 19.3079 5.78632 19.2614 5.55832C20.169 4.71957 20.8095 3.66058 21.1111 2.49999Z" fill="white"/>
</svg>
