<svg width="22" height="20" viewBox="0 0 22 20" fill="none" xmlns="http://www.w3.org/2000/svg">
<path fill-rule="evenodd" clip-rule="evenodd" d="M19.6396 4.29952C19.9425 4.59215 20.1577 4.95452 20.2633 5.35001C20.5454 6.81559 20.6824 8.30247 20.6724 9.79168C20.678 11.2586 20.5411 12.723 20.2633 14.1667C20.1577 14.5622 19.9425 14.9245 19.6396 15.2172C19.3367 15.5098 18.9567 15.7224 18.5381 15.8333C17.0085 16.2167 10.8902 16.2167 10.8902 16.2167C10.8902 16.2167 4.77182 16.2167 3.24224 15.8333C2.83211 15.7282 2.45786 15.5257 2.15565 15.2454C1.85343 14.9651 1.63347 14.6165 1.51701 14.2333C1.23489 12.7678 1.09795 11.2809 1.10793 9.79168C1.10014 8.3136 1.23707 6.83797 1.51701 5.38334C1.62264 4.98785 1.83779 4.62549 2.14071 4.33285C2.44363 4.04021 2.8236 3.82766 3.24224 3.71668C4.77182 3.33334 10.8902 3.33334 10.8902 3.33334C10.8902 3.33334 17.0085 3.33334 18.5381 3.68334C18.9567 3.79433 19.3367 4.00688 19.6396 4.29952ZM14.0031 9.79171L8.88962 12.5167V7.06671L14.0031 9.79171Z" fill="white"/>
</svg>
